# Blender v2.59 (sub 0) OBJ File: ''
# www.blender.org
mtllib base.mtl
o Mesh.002_Panel.001
v -1.500000 1.500000 -0.000000
v -1.500000 -1.500000 0.000000
v -1.500000 -1.500000 -0.500000
v -1.500000 1.500000 -0.500000
v 1.500000 -1.500000 0.000000
v 1.500000 -1.500000 -0.500000
v 1.500000 1.500000 -0.000000
v 1.500000 1.500000 -0.500000
v -2.000000 -2.000000 0.000001
v -2.000000 2.000000 -0.000001
v 2.000000 2.000000 -0.000001
v 2.000000 -2.000000 0.000001
v -1.300000 -1.500000 -0.250000
v -1.300000 -1.500000 -0.400000
v 1.500000 1.300000 -0.400000
v 1.500000 1.300000 -0.250000
v -1.500000 -1.300000 -0.250000
v 1.300000 1.500000 -0.250000
v 1.300000 1.500000 -0.400000
v -1.500000 -1.300000 -0.400000
v 1.500000 1.500000 -0.250000
v -1.500000 -1.500000 -0.250000
v -1.500000 1.300000 -0.100000
v -1.500000 1.300000 -0.250000
v 1.300000 -1.500000 -0.250000
v 1.300000 -1.500000 -0.100000
v -1.300000 1.500000 -0.100000
v 1.500000 -1.300000 -0.100000
v 1.500000 -1.300000 -0.250000
v -1.300000 1.500000 -0.250000
v 1.500000 -1.500000 -0.100000
v -1.500000 1.500000 -0.100000
vt 0.859375 0.262695
vt 0.859375 0.737305
vt 0.799805 0.737305
vt 0.799805 0.262695
vt 0.799805 0.796875
vt 0.325195 0.796875
vt 0.325195 0.737305
vt 0.325195 0.203125
vt 0.799805 0.203125
vt 0.325195 0.262695
vt 0.265625 0.737305
vt 0.265625 0.262695
vt 0.978027 0.856445
vt 0.978027 0.143555
vt 0.146973 0.143555
vt 0.146973 0.856445
vt 0.206055 0.084473
vt 0.918945 0.084473
vt 0.918945 0.915527
vt 0.206055 0.915527
vt 0.031250 0.937500
vt 0.000000 0.937500
vt 0.000000 0.062500
vt 0.031250 0.062500
vt 0.093750 0.937500
vt 0.093750 0.062500
vt 0.125000 0.062500
vt 0.125000 0.937500
vt 0.062500 0.000000
vt 0.062500 1.000000
vn 1.000000 -0.000000 0.000000
vn 0.000000 1.000000 -0.000000
vn 0.000000 -1.000000 0.000000
vn -1.000000 0.000000 0.000000
vn 0.000000 0.000000 1.000000
vn 0.707107 -0.707107 0.000000
vn -0.707107 0.707107 0.000000
vn -0.707107 -0.707107 0.000001
vn 0.707107 0.707107 -0.000001
vn 0.707107 0.707107 -0.000002
usemtl yellow_plaster.001
s off
f 1/1/1 2/2/1 3/3/1
f 1/1/1 3/3/1 4/4/1
f 2/5/2 5/6/2 6/7/2
f 2/5/2 6/7/2 3/3/2
f 7/8/3 1/9/3 4/4/3
f 7/8/3 4/4/3 8/10/3
f 5/11/4 7/12/4 8/10/4
f 5/11/4 8/10/4 6/7/4
f 3/3/5 6/7/5 8/10/5
f 3/3/5 8/10/5 4/4/5
f 2/2/5 1/1/5 9/13/5
f 9/13/5 1/1/5 10/14/5
f 11/15/5 7/12/5 5/11/5
f 11/15/5 5/11/5 12/16/5
f 7/8/5 11/17/5 10/18/5
f 10/18/5 1/9/5 7/8/5
f 5/6/5 2/5/5 9/19/5
f 5/6/5 9/19/5 12/20/5
usemtl wood.001
f 13/21/6 14/22/6 15/23/6
f 13/21/6 15/23/6 16/24/6
f 17/25/7 18/26/7 19/27/7
f 17/25/7 19/27/7 20/28/7
f 18/26/5 13/21/5 21/29/5
f 21/29/5 13/21/5 16/24/5
f 22/30/5 13/21/5 18/26/5
f 22/30/5 18/26/5 17/25/5
f 23/21/8 24/22/8 25/23/8
f 23/21/8 25/23/8 26/24/8
f 27/25/9 28/26/9 29/27/9
f 27/25/10 29/27/10 30/28/10
f 28/26/5 23/21/5 31/29/5
f 31/29/5 23/21/5 26/24/5
f 32/30/5 23/21/5 28/26/5
f 32/30/5 28/26/5 27/25/5
