# Blender v2.57 (sub 1) OBJ File: 'panel-beams.blend'
# www.blender.org
o FrontBeam
v 1.500000 0.100000 -1.500000
v -1.500000 0.100000 1.500000
v 1.500000 0.100000 -1.300000
v -1.300000 0.100000 1.500000
v -1.300000 0.250000 1.500000
v 1.500000 0.250000 -1.300000
v 1.300000 0.100000 -1.500000
v 1.300000 0.250000 -1.500000
v -1.500000 0.100000 1.300000
v -1.500000 0.250000 1.300000
vt 0.031250 0.937500
vt 0.000000 0.937500
vt 0.000000 0.062500
vt 0.031250 0.062500
vt 0.093750 0.937500
vt 0.093750 0.062500
vt 0.125000 0.062500
vt 0.125000 0.937500
vt 0.062500 0.000000
vt 0.062500 1.000000
vn 0.707107 -0.000000 0.707107
vn -0.707107 0.000001 -0.707107
vn -0.000000 -1.000000 -0.000000
usemtl wood
s off
f 3/1/1 6/2/1 5/3/1
f 3/1/1 5/3/1 4/4/1
f 7/5/2 9/6/2 10/7/2
f 7/5/2 10/7/2 8/8/2
f 2/9/3 9/6/3 3/1/3
f 2/9/3 3/1/3 4/4/3
f 1/10/3 3/1/3 9/6/3
f 1/10/3 9/6/3 7/5/3
o BackBeam
v 1.500000 0.250000 1.500000
v -1.500000 0.250000 -1.500000
v 1.300000 0.250000 1.500000
v -1.500000 0.250000 -1.300000
v -1.500000 0.400000 -1.300000
v 1.300000 0.400000 1.500000
v 1.500000 0.250000 1.300000
v 1.500000 0.400000 1.300000
v -1.300000 0.250000 -1.500000
v -1.300000 0.400000 -1.500000
vt 0.031250 0.937500
vt 0.000000 0.937500
vt 0.000000 0.062500
vt 0.031250 0.062500
vt 0.093750 0.937500
vt 0.093750 0.062500
vt 0.125000 0.062500
vt 0.125000 0.937500
vt 0.062500 0.000000
vt 0.062500 1.000000
vn -0.707107 0.000000 0.707107
vn 0.707107 0.000000 -0.707107
usemtl wood
s off
f 13/11/4 16/12/4 15/13/4
f 13/11/4 15/13/4 14/14/4
f 17/15/5 19/16/5 20/17/5
f 17/15/5 20/17/5 18/18/5
f 12/19/3 19/16/3 13/11/3
f 12/19/3 13/11/3 14/14/3
f 11/20/3 13/11/3 19/16/3
f 11/20/3 19/16/3 17/15/3
o Panel
v -1.500000 -0.000000 -1.500000
v -1.500000 -0.000000 1.500000
v 1.500000 0.000000 1.500000
v 1.500000 0.500000 -1.500000
v 1.500000 0.500000 1.500000
v -1.500000 0.500000 1.500000
v -1.500000 0.500000 -1.500000
v -2.000000 -0.000000 2.000000
v 2.000000 0.000000 2.000000
v 1.500000 0.000000 -1.500000
v 2.000000 0.000000 -2.000000
v -2.000000 -0.000000 -2.000000
vt 0.859375 0.262695
vt 0.859375 0.737305
vt 0.799805 0.737305
vt 0.799805 0.262695
vt 0.799805 0.796875
vt 0.325195 0.796875
vt 0.325195 0.737305
vt 0.325195 0.203125
vt 0.799805 0.203125
vt 0.325195 0.262695
vt 0.265625 0.737305
vt 0.265625 0.262695
vt 0.978027 0.856445
vt 0.978027 0.143555
vt 0.146973 0.143555
vt 0.146973 0.856445
vt 0.206055 0.084473
vt 0.918945 0.084473
vt 0.918945 0.915527
vt 0.206055 0.915527
vn -1.000000 -0.000000 0.000000
vn 0.000000 -0.000000 -1.000000
vn 0.000000 0.000000 1.000000
vn 1.000000 0.000000 0.000000
usemtl yellow_plaster
s off
f 30/21/6 23/22/6 25/23/6
f 30/21/6 25/23/6 24/24/6
f 23/25/7 22/26/7 26/27/7
f 23/25/7 26/27/7 25/23/7
f 21/28/8 30/29/8 24/24/8
f 21/28/8 24/24/8 27/30/8
f 22/31/9 21/32/9 27/30/9
f 22/31/9 27/30/9 26/27/9
f 25/23/3 26/27/3 27/30/3
f 25/23/3 27/30/3 24/24/3
f 29/33/3 23/22/3 30/21/3
f 29/33/3 30/21/3 31/34/3
f 32/35/3 21/32/3 22/31/3
f 32/35/3 22/31/3 28/36/3
f 21/28/3 32/37/3 31/38/3
f 21/28/3 31/38/3 30/29/3
f 22/26/3 23/25/3 29/39/3
f 22/26/3 29/39/3 28/40/3
